<svg width="600" height="650" viewBox="0 0 600 650"
     xmlns="http://www.w3.org/2000/svg"
     role="img" aria-label="Vedant Jadhav GitHub stats card">
  <title>VedantJadhav701 GitHub Stats</title>

  <!-- Background with gradient -->
  <defs>
    <linearGradient id="bgGradient" x1="0%" y1="0%" x2="100%" y2="100%">
      <stop offset="0%" style="stop-color:#0d1117;stop-opacity:1" />
      <stop offset="100%" style="stop-color:#161b22;stop-opacity:1" />
    </linearGradient>
  </defs>
  
  <rect width="600" height="650" rx="12" fill="url(#bgGradient)"/>
  <rect width="600" height="650" rx="12" fill="none" stroke="#30363d" stroke-width="2"/>

  <!-- Header -->
  <text x="25" y="28" font-family="&apos;Segoe UI&apos;,system-ui,sans-serif"
        font-size="14" font-weight="700" fill="#f0883e">
    ⚡ VedantJadhav701 — GitHub Stats
  </text>
  <text x="575" y="28" font-family="&apos;Segoe UI&apos;,system-ui,sans-serif"
        font-size="10" fill="#8b949e" text-anchor="end">
    Updated 17 Jul 2026
  </text>

  <line x1="25" y1="38" x2="575" y2="38" stroke="#21262d" stroke-width="2"/>

  <!-- Stat boxes - Row 1 -->
  <!-- Stars -->
  <g>
    <rect x="25" y="55" width="120" height="80" rx="10" fill="#1c2128" stroke="#21262d" stroke-width="1"/>
    <text x="85" y="85" font-family="&apos;Segoe UI&apos;,system-ui,sans-serif"
          font-size="22" font-weight="700" fill="#f0c040" text-anchor="middle">⭐</text>
    <text x="85" y="108" font-family="&apos;Segoe UI&apos;,system-ui,sans-serif"
          font-size="24" font-weight="700" fill="#f0c040" text-anchor="middle">120</text>
    <text x="85" y="125" font-family="&apos;Segoe UI&apos;,system-ui,sans-serif"
          font-size="11" fill="#8b949e" text-anchor="middle">Stars</text>
  </g>

  <!-- Commits -->
  <g>
    <rect x="165" y="55" width="120" height="80" rx="10" fill="#1c2128" stroke="#21262d" stroke-width="1"/>
    <text x="225" y="85" font-family="&apos;Segoe UI&apos;,system-ui,sans-serif"
          font-size="22" font-weight="700" fill="#58a6ff" text-anchor="middle">💻</text>
    <text x="225" y="108" font-family="&apos;Segoe UI&apos;,system-ui,sans-serif"
          font-size="24" font-weight="700" fill="#58a6ff" text-anchor="middle">447</text>
    <text x="225" y="125" font-family="&apos;Segoe UI&apos;,system-ui,sans-serif"
          font-size="11" fill="#8b949e" text-anchor="middle">Commits</text>
  </g>

  <!-- Contributions -->
  <g>
    <rect x="305" y="55" width="120" height="80" rx="10" fill="#1c2128" stroke="#21262d" stroke-width="1"/>
    <text x="365" y="85" font-family="&apos;Segoe UI&apos;,system-ui,sans-serif"
          font-size="22" font-weight="700" fill="#3fb950" text-anchor="middle">📊</text>
    <text x="365" y="108" font-family="&apos;Segoe UI&apos;,system-ui,sans-serif"
          font-size="24" font-weight="700" fill="#3fb950" text-anchor="middle">626</text>
    <text x="365" y="125" font-family="&apos;Segoe UI&apos;,system-ui,sans-serif"
          font-size="11" fill="#8b949e" text-anchor="middle">Contributions</text>
  </g>

  <!-- Current Streak (Full Width) -->
  <g>
    <rect x="25" y="150" width="550" height="90" rx="10" fill="#1c2128" stroke="#f85149" stroke-width="2"/>
    <text x="45" y="175" font-family="&apos;Segoe UI&apos;,system-ui,sans-serif"
          font-size="13" font-weight="600" fill="#f85149">🔥 CURRENT STREAK</text>
    <text x="555" y="180" font-family="&apos;Segoe UI&apos;,system-ui,sans-serif"
          font-size="36" font-weight="700" fill="#f85149" text-anchor="end">1</text>
    <text x="555" y="204" font-family="&apos;Segoe UI&apos;,system-ui,sans-serif"
          font-size="12" fill="#8b949e" text-anchor="end">days</text>
    <text x="45" y="200" font-family="&apos;Segoe UI&apos;,system-ui,sans-serif"
          font-size="12" fill="#8b949e">05 Jul – 17 Jul 2026</text>
    <text x="45" y="222" font-family="&apos;Segoe UI&apos;,system-ui,sans-serif"
          font-size="11" fill="#484f58">🏆 Longest: 19 days</text>
    <text x="45" y="238" font-family="&apos;Segoe UI&apos;,system-ui,sans-serif"
          font-size="11" fill="#484f58">27 Apr – 15 May 2026</text>
  </g>

  <!-- Separator line -->
  <line x1="25" y1="260" x2="575" y2="260" stroke="#21262d" stroke-width="1"/>

  <!-- Language bar title -->
  <text x="25" y="280" font-family="&apos;Segoe UI&apos;,system-ui,sans-serif"
        font-size="13" font-weight="600" fill="#e6edf3">📝 Top Programming Languages</text>
  
  <!-- Language bar -->
  <rect x="25" y="288" width="550" height="14" rx="7" fill="#161b22" stroke="#21262d" stroke-width="1"/>
  <rect x="25" y="288" width="491.04" height="14" rx="7" fill="#3572A5"/>
<rect x="516.04" y="288" width="24.31" height="14" rx="0" fill="#f34b7d"/>
<rect x="540.3499999999999" y="288" width="16.34" height="14" rx="0" fill="#fedf5b"/>
<rect x="556.6899999999999" y="288" width="12.21" height="14" rx="0" fill="#DA5B0B"/>
<rect x="568.9" y="288" width="3.03" height="14" rx="0" fill="#555555"/>
<rect x="571.93" y="288" width="1.1" height="14" rx="7" fill="#3178c6"/>
  
  <!-- Legend - separated rows -->
  <g id="legend-row-1">
    <circle cx="25" cy="318" r="6" fill="#3572A5"/><text x="39" y="316" font-size="12" font-weight="600" fill="#e6edf3">Python</text><text x="39" y="334" font-size="11" fill="#58a6ff" font-weight="600">89.28%</text>
    <circle cx="215" cy="318" r="6" fill="#f34b7d"/><text x="229" y="316" font-size="12" font-weight="600" fill="#e6edf3">C++</text><text x="229" y="334" font-size="11" fill="#58a6ff" font-weight="600">4.42%</text>
    <circle cx="405" cy="318" r="6" fill="#fedf5b"/><text x="419" y="316" font-size="12" font-weight="600" fill="#e6edf3">Cython</text><text x="419" y="334" font-size="11" fill="#58a6ff" font-weight="600">2.97%</text>
    <circle cx="25" cy="355" r="6" fill="#DA5B0B"/><text x="39" y="353" font-size="12" font-weight="600" fill="#e6edf3">Jupyter Notebook</text><text x="39" y="371" font-size="11" fill="#58a6ff" font-weight="600">2.22%</text>
    <circle cx="215" cy="355" r="6" fill="#555555"/><text x="229" y="353" font-size="12" font-weight="600" fill="#e6edf3">C</text><text x="229" y="371" font-size="11" fill="#58a6ff" font-weight="600">0.55%</text>
    <circle cx="405" cy="355" r="6" fill="#3178c6"/><text x="419" y="353" font-size="12" font-weight="600" fill="#e6edf3">TypeScript</text><text x="419" y="371" font-size="11" fill="#58a6ff" font-weight="600">0.2%</text>
  </g>

  <!-- Separator line -->
  <line x1="25" y1="375" x2="575" y2="375" stroke="#21262d" stroke-width="1"/>

  <!-- Contribution grid title -->
  <text x="25" y="395" font-family="&apos;Segoe UI&apos;,system-ui,sans-serif"
        font-size="13" font-weight="600" fill="#e6edf3">📈 Contribution Activity (Last 26 Weeks)</text>
  
  <!-- Contribution grid -->
  <rect x="25" y="415" width="8" height="8" rx="1" fill="#161b22"/>
    <rect x="25" y="425" width="8" height="8" rx="1" fill="#161b22"/>
    <rect x="25" y="435" width="8" height="8" rx="1" fill="#161b22"/>
    <rect x="25" y="445" width="8" height="8" rx="1" fill="#161b22"/>
    <rect x="25" y="455" width="8" height="8" rx="1" fill="#161b22"/>
    <rect x="25" y="465" width="8" height="8" rx="1" fill="#161b22"/>
    <rect x="25" y="475" width="8" height="8" rx="1" fill="#161b22"/>
    <rect x="35" y="415" width="8" height="8" rx="1" fill="#26a641"/>
    <rect x="35" y="425" width="8" height="8" rx="1" fill="#161b22"/>
    <rect x="35" y="435" width="8" height="8" rx="1" fill="#0e4429"/>
    <rect x="35" y="445" width="8" height="8" rx="1" fill="#161b22"/>
    <rect x="35" y="455" width="8" height="8" rx="1" fill="#161b22"/>
    <rect x="35" y="465" width="8" height="8" rx="1" fill="#161b22"/>
    <rect x="35" y="475" width="8" height="8" rx="1" fill="#161b22"/>
    <rect x="45" y="415" width="8" height="8" rx="1" fill="#161b22"/>
    <rect x="45" y="425" width="8" height="8" rx="1" fill="#161b22"/>
    <rect x="45" y="435" width="8" height="8" rx="1" fill="#161b22"/>
    <rect x="45" y="445" width="8" height="8" rx="1" fill="#161b22"/>
    <rect x="45" y="455" width="8" height="8" rx="1" fill="#161b22"/>
    <rect x="45" y="465" width="8" height="8" rx="1" fill="#161b22"/>
    <rect x="45" y="475" width="8" height="8" rx="1" fill="#161b22"/>
    <rect x="55" y="415" width="8" height="8" rx="1" fill="#161b22"/>
    <rect x="55" y="425" width="8" height="8" rx="1" fill="#161b22"/>
    <rect x="55" y="435" width="8" height="8" rx="1" fill="#161b22"/>
    <rect x="55" y="445" width="8" height="8" rx="1" fill="#161b22"/>
    <rect x="55" y="455" width="8" height="8" rx="1" fill="#161b22"/>
    <rect x="55" y="465" width="8" height="8" rx="1" fill="#161b22"/>
    <rect x="55" y="475" width="8" height="8" rx="1" fill="#161b22"/>
    <rect x="65" y="415" width="8" height="8" rx="1" fill="#161b22"/>
    <rect x="65" y="425" width="8" height="8" rx="1" fill="#161b22"/>
    <rect x="65" y="435" width="8" height="8" rx="1" fill="#161b22"/>
    <rect x="65" y="445" width="8" height="8" rx="1" fill="#161b22"/>
    <rect x="65" y="455" width="8" height="8" rx="1" fill="#161b22"/>
    <rect x="65" y="465" width="8" height="8" rx="1" fill="#161b22"/>
    <rect x="65" y="475" width="8" height="8" rx="1" fill="#161b22"/>
    <rect x="75" y="415" width="8" height="8" rx="1" fill="#161b22"/>
    <rect x="75" y="425" width="8" height="8" rx="1" fill="#161b22"/>
    <rect x="75" y="435" width="8" height="8" rx="1" fill="#161b22"/>
    <rect x="75" y="445" width="8" height="8" rx="1" fill="#161b22"/>
    <rect x="75" y="455" width="8" height="8" rx="1" fill="#161b22"/>
    <rect x="75" y="465" width="8" height="8" rx="1" fill="#161b22"/>
    <rect x="75" y="475" width="8" height="8" rx="1" fill="#161b22"/>
    <rect x="85" y="415" width="8" height="8" rx="1" fill="#0e4429"/>
    <rect x="85" y="425" width="8" height="8" rx="1" fill="#161b22"/>
    <rect x="85" y="435" width="8" height="8" rx="1" fill="#161b22"/>
    <rect x="85" y="445" width="8" height="8" rx="1" fill="#161b22"/>
    <rect x="85" y="455" width="8" height="8" rx="1" fill="#161b22"/>
    <rect x="85" y="465" width="8" height="8" rx="1" fill="#161b22"/>
    <rect x="85" y="475" width="8" height="8" rx="1" fill="#161b22"/>
    <rect x="95" y="415" width="8" height="8" rx="1" fill="#161b22"/>
    <rect x="95" y="425" width="8" height="8" rx="1" fill="#39d353"/>
    <rect x="95" y="435" width="8" height="8" rx="1" fill="#161b22"/>
    <rect x="95" y="445" width="8" height="8" rx="1" fill="#161b22"/>
    <rect x="95" y="455" width="8" height="8" rx="1" fill="#161b22"/>
    <rect x="95" y="465" width="8" height="8" rx="1" fill="#161b22"/>
    <rect x="95" y="475" width="8" height="8" rx="1" fill="#161b22"/>
    <rect x="105" y="415" width="8" height="8" rx="1" fill="#161b22"/>
    <rect x="105" y="425" width="8" height="8" rx="1" fill="#161b22"/>
    <rect x="105" y="435" width="8" height="8" rx="1" fill="#161b22"/>
    <rect x="105" y="445" width="8" height="8" rx="1" fill="#161b22"/>
    <rect x="105" y="455" width="8" height="8" rx="1" fill="#161b22"/>
    <rect x="105" y="465" width="8" height="8" rx="1" fill="#161b22"/>
    <rect x="105" y="475" width="8" height="8" rx="1" fill="#161b22"/>
    <rect x="115" y="415" width="8" height="8" rx="1" fill="#006d32"/>
    <rect x="115" y="425" width="8" height="8" rx="1" fill="#161b22"/>
    <rect x="115" y="435" width="8" height="8" rx="1" fill="#39d353"/>
    <rect x="115" y="445" width="8" height="8" rx="1" fill="#39d353"/>
    <rect x="115" y="455" width="8" height="8" rx="1" fill="#161b22"/>
    <rect x="115" y="465" width="8" height="8" rx="1" fill="#0e4429"/>
    <rect x="115" y="475" width="8" height="8" rx="1" fill="#161b22"/>
    <rect x="125" y="415" width="8" height="8" rx="1" fill="#161b22"/>
    <rect x="125" y="425" width="8" height="8" rx="1" fill="#161b22"/>
    <rect x="125" y="435" width="8" height="8" rx="1" fill="#0e4429"/>
    <rect x="125" y="445" width="8" height="8" rx="1" fill="#0e4429"/>
    <rect x="125" y="455" width="8" height="8" rx="1" fill="#0e4429"/>
    <rect x="125" y="465" width="8" height="8" rx="1" fill="#161b22"/>
    <rect x="125" y="475" width="8" height="8" rx="1" fill="#161b22"/>
    <rect x="135" y="415" width="8" height="8" rx="1" fill="#0e4429"/>
    <rect x="135" y="425" width="8" height="8" rx="1" fill="#161b22"/>
    <rect x="135" y="435" width="8" height="8" rx="1" fill="#161b22"/>
    <rect x="135" y="445" width="8" height="8" rx="1" fill="#161b22"/>
    <rect x="135" y="455" width="8" height="8" rx="1" fill="#0e4429"/>
    <rect x="135" y="465" width="8" height="8" rx="1" fill="#006d32"/>
    <rect x="135" y="475" width="8" height="8" rx="1" fill="#161b22"/>
    <rect x="145" y="415" width="8" height="8" rx="1" fill="#0e4429"/>
    <rect x="145" y="425" width="8" height="8" rx="1" fill="#26a641"/>
    <rect x="145" y="435" width="8" height="8" rx="1" fill="#006d32"/>
    <rect x="145" y="445" width="8" height="8" rx="1" fill="#39d353"/>
    <rect x="145" y="455" width="8" height="8" rx="1" fill="#161b22"/>
    <rect x="145" y="465" width="8" height="8" rx="1" fill="#26a641"/>
    <rect x="145" y="475" width="8" height="8" rx="1" fill="#39d353"/>
    <rect x="155" y="415" width="8" height="8" rx="1" fill="#161b22"/>
    <rect x="155" y="425" width="8" height="8" rx="1" fill="#161b22"/>
    <rect x="155" y="435" width="8" height="8" rx="1" fill="#161b22"/>
    <rect x="155" y="445" width="8" height="8" rx="1" fill="#161b22"/>
    <rect x="155" y="455" width="8" height="8" rx="1" fill="#161b22"/>
    <rect x="155" y="465" width="8" height="8" rx="1" fill="#161b22"/>
    <rect x="155" y="475" width="8" height="8" rx="1" fill="#161b22"/>
    <rect x="165" y="415" width="8" height="8" rx="1" fill="#161b22"/>
    <rect x="165" y="425" width="8" height="8" rx="1" fill="#39d353"/>
    <rect x="165" y="435" width="8" height="8" rx="1" fill="#39d353"/>
    <rect x="165" y="445" width="8" height="8" rx="1" fill="#0e4429"/>
    <rect x="165" y="455" width="8" height="8" rx="1" fill="#39d353"/>
    <rect x="165" y="465" width="8" height="8" rx="1" fill="#39d353"/>
    <rect x="165" y="475" width="8" height="8" rx="1" fill="#39d353"/>
    <rect x="175" y="415" width="8" height="8" rx="1" fill="#39d353"/>
    <rect x="175" y="425" width="8" height="8" rx="1" fill="#39d353"/>
    <rect x="175" y="435" width="8" height="8" rx="1" fill="#39d353"/>
    <rect x="175" y="445" width="8" height="8" rx="1" fill="#39d353"/>
    <rect x="175" y="455" width="8" height="8" rx="1" fill="#39d353"/>
    <rect x="175" y="465" width="8" height="8" rx="1" fill="#39d353"/>
    <rect x="175" y="475" width="8" height="8" rx="1" fill="#39d353"/>
    <rect x="185" y="415" width="8" height="8" rx="1" fill="#39d353"/>
    <rect x="185" y="425" width="8" height="8" rx="1" fill="#26a641"/>
    <rect x="185" y="435" width="8" height="8" rx="1" fill="#006d32"/>
    <rect x="185" y="445" width="8" height="8" rx="1" fill="#39d353"/>
    <rect x="185" y="455" width="8" height="8" rx="1" fill="#26a641"/>
    <rect x="185" y="465" width="8" height="8" rx="1" fill="#0e4429"/>
    <rect x="185" y="475" width="8" height="8" rx="1" fill="#161b22"/>
    <rect x="195" y="415" width="8" height="8" rx="1" fill="#39d353"/>
    <rect x="195" y="425" width="8" height="8" rx="1" fill="#26a641"/>
    <rect x="195" y="435" width="8" height="8" rx="1" fill="#39d353"/>
    <rect x="195" y="445" width="8" height="8" rx="1" fill="#161b22"/>
    <rect x="195" y="455" width="8" height="8" rx="1" fill="#161b22"/>
    <rect x="195" y="465" width="8" height="8" rx="1" fill="#39d353"/>
    <rect x="195" y="475" width="8" height="8" rx="1" fill="#161b22"/>
    <rect x="205" y="415" width="8" height="8" rx="1" fill="#006d32"/>
    <rect x="205" y="425" width="8" height="8" rx="1" fill="#39d353"/>
    <rect x="205" y="435" width="8" height="8" rx="1" fill="#26a641"/>
    <rect x="205" y="445" width="8" height="8" rx="1" fill="#006d32"/>
    <rect x="205" y="455" width="8" height="8" rx="1" fill="#26a641"/>
    <rect x="205" y="465" width="8" height="8" rx="1" fill="#161b22"/>
    <rect x="205" y="475" width="8" height="8" rx="1" fill="#0e4429"/>
    <rect x="215" y="415" width="8" height="8" rx="1" fill="#161b22"/>
    <rect x="215" y="425" width="8" height="8" rx="1" fill="#161b22"/>
    <rect x="215" y="435" width="8" height="8" rx="1" fill="#161b22"/>
    <rect x="215" y="445" width="8" height="8" rx="1" fill="#0e4429"/>
    <rect x="215" y="455" width="8" height="8" rx="1" fill="#161b22"/>
    <rect x="215" y="465" width="8" height="8" rx="1" fill="#161b22"/>
    <rect x="215" y="475" width="8" height="8" rx="1" fill="#161b22"/>
    <rect x="225" y="415" width="8" height="8" rx="1" fill="#161b22"/>
    <rect x="225" y="425" width="8" height="8" rx="1" fill="#161b22"/>
    <rect x="225" y="435" width="8" height="8" rx="1" fill="#161b22"/>
    <rect x="225" y="445" width="8" height="8" rx="1" fill="#0e4429"/>
    <rect x="225" y="455" width="8" height="8" rx="1" fill="#161b22"/>
    <rect x="225" y="465" width="8" height="8" rx="1" fill="#161b22"/>
    <rect x="225" y="475" width="8" height="8" rx="1" fill="#161b22"/>
    <rect x="235" y="415" width="8" height="8" rx="1" fill="#161b22"/>
    <rect x="235" y="425" width="8" height="8" rx="1" fill="#161b22"/>
    <rect x="235" y="435" width="8" height="8" rx="1" fill="#161b22"/>
    <rect x="235" y="445" width="8" height="8" rx="1" fill="#161b22"/>
    <rect x="235" y="455" width="8" height="8" rx="1" fill="#0e4429"/>
    <rect x="235" y="465" width="8" height="8" rx="1" fill="#161b22"/>
    <rect x="235" y="475" width="8" height="8" rx="1" fill="#161b22"/>
    <rect x="245" y="415" width="8" height="8" rx="1" fill="#161b22"/>
    <rect x="245" y="425" width="8" height="8" rx="1" fill="#161b22"/>
    <rect x="245" y="435" width="8" height="8" rx="1" fill="#0e4429"/>
    <rect x="245" y="445" width="8" height="8" rx="1" fill="#161b22"/>
    <rect x="245" y="455" width="8" height="8" rx="1" fill="#0e4429"/>
    <rect x="245" y="465" width="8" height="8" rx="1" fill="#161b22"/>
    <rect x="245" y="475" width="8" height="8" rx="1" fill="#161b22"/>
    <rect x="255" y="415" width="8" height="8" rx="1" fill="#161b22"/>
    <rect x="255" y="425" width="8" height="8" rx="1" fill="#161b22"/>
    <rect x="255" y="435" width="8" height="8" rx="1" fill="#161b22"/>
    <rect x="255" y="445" width="8" height="8" rx="1" fill="#161b22"/>
    <rect x="255" y="455" width="8" height="8" rx="1" fill="#161b22"/>
    <rect x="255" y="465" width="8" height="8" rx="1" fill="#161b22"/>
    <rect x="255" y="475" width="8" height="8" rx="1" fill="#161b22"/>
    <rect x="265" y="415" width="8" height="8" rx="1" fill="#0e4429"/>
    <rect x="265" y="425" width="8" height="8" rx="1" fill="#161b22"/>
    <rect x="265" y="435" width="8" height="8" rx="1" fill="#161b22"/>
    <rect x="265" y="445" width="8" height="8" rx="1" fill="#161b22"/>
    <rect x="265" y="455" width="8" height="8" rx="1" fill="#161b22"/>
    <rect x="265" y="465" width="8" height="8" rx="1" fill="#161b22"/>
    <rect x="265" y="475" width="8" height="8" rx="1" fill="#161b22"/>
    <rect x="275" y="415" width="8" height="8" rx="1" fill="#161b22"/>
    <rect x="275" y="425" width="8" height="8" rx="1" fill="#161b22"/>
    <rect x="275" y="435" width="8" height="8" rx="1" fill="#161b22"/>
    <rect x="275" y="445" width="8" height="8" rx="1" fill="#161b22"/>
    <rect x="275" y="455" width="8" height="8" rx="1" fill="#161b22"/>
    <rect x="275" y="465" width="8" height="8" rx="1" fill="#161b22"/>

  <!-- Grid legend -->
  <text x="25" y="480"
        font-family="&apos;Segoe UI&apos;,system-ui,sans-serif"
        font-size="9" fill="#8b949e">Less</text>
  <rect x="65" y="470" width="8" height="8" rx="2" fill="#161b22"/><rect x="77" y="470" width="8" height="8" rx="2" fill="#0e4429"/><rect x="89" y="470" width="8" height="8" rx="2" fill="#006d32"/><rect x="101" y="470" width="8" height="8" rx="2" fill="#26a641"/><rect x="113" y="470" width="8" height="8" rx="2" fill="#39d353"/>
  <text x="135" y="480"
        font-family="&apos;Segoe UI&apos;,system-ui,sans-serif"
        font-size="9" fill="#8b949e">More</text>
</svg>